<?xml version="1.0" encoding="ISO-8859-1" standalone="no"?>
<!DOCTYPE svg PUBLIC "-//W3C//DTD SVG 20010904//EN" "http://www.w3.org/TR/2001/REC-SVG-20010904/DTD/svg10.dtd">
<svg xmlns="http://www.w3.org/2000/svg" xmlns:xlink="http://www.w3.org/1999/xlink" xml:space="preserve" width="64" height="64" viewbox="0 0 64 64" zoomAndPan="enabled">
	<g>
		<path fill="#ffffff" stroke-width="2" stroke="#000000" stroke-linecap="round" stroke-linejoin="round" stroke-miterlimit="4" d="m4.916348,29.351351c-0.14184,0.34609 -0.074201,0.714941 0.18683,0.982811l13.373812,13.363207c0.364069,0.352669 0.958158,0.361797 1.32222,0.009129l13.363209,-13.373806c0.26104,-0.26787 0.35368,-0.647911 0.211842,-0.99399c-0.141842,-0.34609 -0.48941,-0.430481 -0.86335,-0.43812c0,0 -4.53318,0.00799 -7.667881,0.00799c-0.185101,-7.17428 5.262238,-17.665603 21.601589,-9.039761c0.35495,0.177811 0.869781,0.0973 1.096889,-0.33217c0.390862,-0.739119 -0.306038,-1.142139 -0.306038,-1.142139c0,0 -8.394951,-4.846823 -9.051102,-5.225653c-10.499271,-6.06175 -18.459049,-1.363009 -21.17878,4.335943c-2.017759,3.983049 -2.90292,8.419609 -3.46981,11.39233c-3.21105,0 -7.784519,0.00099 -7.784519,0.00099c-0.37394,0.007639 -0.69307,0.107161 -0.83491,0.453239z"/>
		<path fill="#ffffff" stroke-width="2" stroke="#000000" stroke-linecap="round" stroke-linejoin="round" stroke-miterlimit="4" d="m6.360353,30.005339l12.799486,12.790262l12.777203,-12.776855c-0.57473,0.001019 -4.183727,0.007305 -7.094242,0.007305c-0.596626,-0.008833 -1.079643,-0.487551 -1.093819,-1.08407c-0.100157,-3.88187 1.275417,-8.645315 5.061005,-11.378761c3.123116,-2.255094 7.839958,-2.712059 14.070221,-0.384592c-2.439148,-1.408244 -4.869068,-2.811159 -5.249638,-3.03088c-5.036804,-2.907998 -9.278488,-3.181764 -12.607037,-2.149715c-3.32855,1.032048 -5.790836,3.416976 -7.02043,5.993477c-0.004265,0.007589 -0.008625,0.015141 -0.013063,0.022629c-1.926695,3.803299 -2.793165,8.131174 -3.358299,11.094664c-0.098858,0.526957 -0.560059,0.908043 -1.096197,0.905798c-2.959501,-0.000004 -6.54879,-0.00939 -7.17519,-0.00926z" />
		<path fill="#ffffff" stroke-width="2" stroke-linecap="round" stroke-linejoin="round" stroke-miterlimit="4" d="m7.592752,30.535843l11.563839,11.533794l11.507669,-11.518578c-1.377773,0.002304 -3.42588,-0.009697 -5.817272,-0.009695c-0.876921,-0.001272 -1.595619,-0.696194 -1.626385,-1.572571c-0.103718,-4.019646 1.31193,-8.951778 5.286598,-11.821751c2.548576,-1.840239 6.139679,-2.451104 10.549603,-1.602623c-0.548901,-0.316909 -1.553066,-0.896663 -1.674454,-0.966745c-4.937309,-2.850554 -9.043056,-3.066528 -12.224928,-2.079957c-3.181873,0.986571 -5.506945,3.260921 -6.675636,5.709819c-0.008469,0.015219 -0.017181,0.030312 -0.026129,0.045254c-1.884129,3.719273 -2.738228,7.986658 -3.302542,10.945835c-0.144518,0.775871 -0.824186,1.336702 -1.613386,1.331285c-2.452826,0.000004 -4.5502,0.005659 -5.946978,0.005932z" />
		<g transform="matrix(-0.418052, 0.724088, -0.724088, -0.418052, 75.5312, 27.6701)">
			<path fill="#00ff00" stroke-width="2" stroke="#000000" stroke-linecap="round" stroke-linejoin="round" stroke-miterlimit="4" d="m17.063637,12.863538c-0.443293,0.060051 -0.784893,0.350679 -0.906252,0.78125l-5.843749,21.843749c-0.14757,0.58799 0.19825,1.208797 0.78125,1.375l21.843755,5.84375c0.433559,0.11018 0.882599,-0.021122 1.15625,-0.375c0.273659,-0.353882 0.153217,-0.764362 -0.0625,-1.15625c0,0 -2.719166,-4.690632 -4.593754,-7.9375c7.320332,-4.482027 21.444672,-5.113667 22.281254,16.96875c0.028088,0.47398 0.419357,0.959087 1,0.9375c0.99931,-0.037163 1,-1 1,-1c0,0 0,-11.59383 0,-12.5c0,-14.499998 -9.626923,-19.934727 -17.15625,-19.343748c-5.332226,0.291941 -10.456886,2.028212 -13.875004,3.21875c-1.920242,-3.32596 -4.65625,-8.062501 -4.65625,-8.062501c-0.231531,-0.382759 -0.525452,-0.653799 -0.96875,-0.59375z" />
			<path fill="#00ff00" stroke-width="2" stroke="#000000" stroke-linecap="round" stroke-linejoin="round" stroke-miterlimit="4" d="m17.249756,14.750339l-5.59375,20.906247l20.875,5.59375c-0.344749,-0.594688 -2.50948,-4.329079 -4.25,-7.34375c-0.347641,-0.62326 -0.14064,-1.40984 0.46875,-1.78125c3.960892,-2.425137 9.717415,-3.848927 14.812504,-1.562496c4.203449,1.886307 7.49749,6.498676 8.8125,14.343746c0,-3.36858 0,-6.724419 0,-7.25c0,-6.956066 -2.25301,-11.513256 -5.3125,-14.343746c-3.05949,-2.83049 -7.002239,-3.954679 -10.40625,-3.6875c-0.01041,0.00012 -0.02084,0.00012 -0.03125,0c-5.091595,0.27877 -10.092506,1.96941 -13.500004,3.15625c-0.604931,0.21273 -1.275459,-0.037081 -1.59375,-0.59375c-1.76981,-3.065411 -3.906521,-6.788762 -4.28125,-7.437501z"/>
		</g>
	</g>
</svg>
